<?xml version="1.0" standalone="no"?>
<!DOCTYPE svg PUBLIC "-//W3C//DTD SVG 20010904//EN"
 "http://www.w3.org/TR/2001/REC-SVG-20010904/DTD/svg10.dtd">
<svg version="1.0" xmlns="http://www.w3.org/2000/svg"
 width="1200.000000pt" height="1200.000000pt" viewBox="0 0 1200.000000 1200.000000"
 preserveAspectRatio="xMidYMid meet">

<g transform="translate(0.000000,1200.000000) scale(0.100000,-0.100000)"
fill="#000000" stroke="none">
<path d="M11084 11176 c-165 -105 -390 -248 -500 -317 -109 -70 -410 -260
-669 -424 -414 -263 -694 -440 -1725 -1093 -447 -283 -475 -301 -477 -298 -2
1 124 279 278 617 155 338 290 633 300 657 l18 42 -22 -11 c-82 -43 -1192
-710 -1692 -1017 -1029 -632 -2292 -1444 -2985 -1920 -1323 -910 -1985 -1447
-2301 -1869 -684 -912 -797 -2118 -294 -3138 296 -602 764 -1071 1360 -1365
337 -166 629 -252 1005 -295 196 -23 585 -16 775 13 519 81 971 275 1400 601
123 93 438 406 566 561 163 197 221 270 335 420 700 919 1722 2501 2853 4417
117 199 122 210 95 199 -164 -64 -1307 -486 -1310 -483 -2 2 148 228 334 503
186 274 648 958 1027 1519 379 561 765 1133 858 1270 815 1206 1078 1597 1075
1600 -2 1 -138 -84 -304 -189z m-7294 -6151 c277 -37 513 -142 732 -324 543
-450 675 -1245 308 -1846 -291 -477 -845 -750 -1390 -685 -400 48 -743 246
-998 577 -99 128 -198 340 -240 513 -150 623 124 1260 683 1588 263 155 595
220 905 177z"/>
</g>
</svg>
